<svg viewBox="-16 -32 880 192" width="880" height="192" xmlns="http://www.w3.org/2000/svg"><desc>Generated with https://github.com/Platane/snk</desc><style>:root{--cb:#1b1f230a;--cs:purple;--ce:#ebedf0;--c0:#ebedf0;--c1:#9be9a8;--c2:#40c463;--c3:#30a14e;--c4:#216e39}.c{shape-rendering:geometricPrecision;fill:var(--ce);stroke-width:1px;stroke:var(--cb);animation:none 40900ms linear infinite;width:12px;height:12px}@keyframes c0{0.23%{fill:var(--c1)}0.25%,100%{fill:var(--ce)}}.c.c0{fill:var(--c1);animation-name:c0}@keyframes c1{54.02%{fill:var(--c2)}54.04%,100%{fill:var(--ce)}}.c.c1{fill:var(--c2);animation-name:c1}@keyframes c2{53.78%{fill:var(--c1)}53.8%,100%{fill:var(--ce)}}.c.c2{fill:var(--c1);animation-name:c2}@keyframes c3{57.94%{fill:var(--c2)}57.96%,100%{fill:var(--ce)}}.c.c3{fill:var(--c2);animation-name:c3}@keyframes c4{89.23%{fill:var(--c3)}89.25%,100%{fill:var(--ce)}}.c.c4{fill:var(--c3);animation-name:c4}@keyframes c5{97.79%{fill:var(--c4)}97.81%,100%{fill:var(--ce)}}.c.c5{fill:var(--c4);animation-name:c5}@keyframes c6{0.72%{fill:var(--c1)}0.74%,100%{fill:var(--ce)}}.c.c6{fill:var(--c1);animation-name:c6}@keyframes c7{0.97%{fill:var(--c1)}0.99%,100%{fill:var(--ce)}}.c.c7{fill:var(--c1);animation-name:c7}@keyframes c8{88.25%{fill:var(--c3)}88.27%,100%{fill:var(--ce)}}.c.c8{fill:var(--c3);animation-name:c8}@keyframes c9{55%{fill:var(--c2)}55.02%,100%{fill:var(--ce)}}.c.c9{fill:var(--c2);animation-name:c9}@keyframes ca{54.76%{fill:var(--c2)}54.78%,100%{fill:var(--ce)}}.c.ca{fill:var(--c2);animation-name:ca}@keyframes cb{1.46%{fill:var(--c1)}1.48%,100%{fill:var(--ce)}}.c.cb{fill:var(--c1);animation-name:cb}@keyframes cc{1.7%{fill:var(--c1)}1.72%,100%{fill:var(--ce)}}.c.cc{fill:var(--c1);animation-name:cc}@keyframes cd{16.62%{fill:var(--c1)}16.64%,100%{fill:var(--ce)}}.c.cd{fill:var(--c1);animation-name:cd}@keyframes ce{16.37%{fill:var(--c1)}16.39%,100%{fill:var(--ce)}}.c.ce{fill:var(--c1);animation-name:ce}@keyframes cf{1.95%{fill:var(--c1)}1.97%,100%{fill:var(--ce)}}.c.cf{fill:var(--c1);animation-name:cf}@keyframes cg{18.33%{fill:var(--c1)}18.35%,100%{fill:var(--ce)}}.c.cg{fill:var(--c1);animation-name:cg}@keyframes ch{2.92%{fill:var(--c1)}2.94%,100%{fill:var(--ce)}}.c.ch{fill:var(--c1);animation-name:ch}@keyframes ci{2.68%{fill:var(--c1)}2.7%,100%{fill:var(--ce)}}.c.ci{fill:var(--c1);animation-name:ci}@keyframes cj{2.43%{fill:var(--c1)}2.45%,100%{fill:var(--ce)}}.c.cj{fill:var(--c1);animation-name:cj}@keyframes ck{2.19%{fill:var(--c1)}2.21%,100%{fill:var(--ce)}}.c.ck{fill:var(--c1);animation-name:ck}@keyframes cl{15.88%{fill:var(--c1)}15.9%,100%{fill:var(--ce)}}.c.cl{fill:var(--c1);animation-name:cl}@keyframes cm{55.74%{fill:var(--c2)}55.76%,100%{fill:var(--ce)}}.c.cm{fill:var(--c2);animation-name:cm}@keyframes cn{3.17%{fill:var(--c1)}3.19%,100%{fill:var(--ce)}}.c.cn{fill:var(--c1);animation-name:cn}@keyframes co{56.22%{fill:var(--c2)}56.24%,100%{fill:var(--ce)}}.c.co{fill:var(--c2);animation-name:co}@keyframes cp{4.15%{fill:var(--c1)}4.17%,100%{fill:var(--ce)}}.c.cp{fill:var(--c1);animation-name:cp}@keyframes cq{3.41%{fill:var(--c1)}3.43%,100%{fill:var(--ce)}}.c.cq{fill:var(--c1);animation-name:cq}@keyframes cr{4.88%{fill:var(--c1)}4.9%,100%{fill:var(--ce)}}.c.cr{fill:var(--c1);animation-name:cr}@keyframes cs{5.12%{fill:var(--c1)}5.14%,100%{fill:var(--ce)}}.c.cs{fill:var(--c1);animation-name:cs}@keyframes ct{5.37%{fill:var(--c1)}5.39%,100%{fill:var(--ce)}}.c.ct{fill:var(--c1);animation-name:ct}@keyframes cu{90.7%{fill:var(--c4)}90.72%,100%{fill:var(--ce)}}.c.cu{fill:var(--c4);animation-name:cu}@keyframes cv{3.66%{fill:var(--c1)}3.68%,100%{fill:var(--ce)}}.c.cv{fill:var(--c1);animation-name:cv}@keyframes cw{6.59%{fill:var(--c1)}6.61%,100%{fill:var(--ce)}}.c.cw{fill:var(--c1);animation-name:cw}@keyframes cx{6.1%{fill:var(--c1)}6.12%,100%{fill:var(--ce)}}.c.cx{fill:var(--c1);animation-name:cx}@keyframes cy{60.63%{fill:var(--c2)}60.65%,100%{fill:var(--ce)}}.c.cy{fill:var(--c2);animation-name:cy}@keyframes cz{7.32%{fill:var(--c1)}7.34%,100%{fill:var(--ce)}}.c.cz{fill:var(--c1);animation-name:cz}@keyframes c10{9.77%{fill:var(--c1)}9.79%,100%{fill:var(--ce)}}.c.c10{fill:var(--c1);animation-name:c10}@keyframes c11{85.08%{fill:var(--c3)}85.1%,100%{fill:var(--ce)}}.c.c11{fill:var(--c3);animation-name:c11}@keyframes c12{9.53%{fill:var(--c1)}9.55%,100%{fill:var(--ce)}}.c.c12{fill:var(--c1);animation-name:c12}@keyframes c13{8.3%{fill:var(--c1)}8.32%,100%{fill:var(--ce)}}.c.c13{fill:var(--c1);animation-name:c13}@keyframes c14{9.04%{fill:var(--c1)}9.06%,100%{fill:var(--ce)}}.c.c14{fill:var(--c1);animation-name:c14}@keyframes c15{8.79%{fill:var(--c1)}8.81%,100%{fill:var(--ce)}}.c.c15{fill:var(--c1);animation-name:c15}@keyframes c16{8.55%{fill:var(--c1)}8.57%,100%{fill:var(--ce)}}.c.c16{fill:var(--c1);animation-name:c16}@keyframes c17{93.14%{fill:var(--c4)}93.16%,100%{fill:var(--ce)}}.c.c17{fill:var(--c4);animation-name:c17}@keyframes c18{63.07%{fill:var(--c2)}63.09%,100%{fill:var(--ce)}}.c.c18{fill:var(--c2);animation-name:c18}@keyframes c19{93.39%{fill:var(--c4)}93.41%,100%{fill:var(--ce)}}.c.c19{fill:var(--c4);animation-name:c19}@keyframes c1a{12.7%{fill:var(--c1)}12.72%,100%{fill:var(--ce)}}.c.c1a{fill:var(--c1);animation-name:c1a}@keyframes c1b{11.48%{fill:var(--c1)}11.5%,100%{fill:var(--ce)}}.c.c1b{fill:var(--c1);animation-name:c1b}@keyframes c1c{81.65%{fill:var(--c3)}81.67%,100%{fill:var(--ce)}}.c.c1c{fill:var(--c3);animation-name:c1c}@keyframes c1d{24.93%{fill:var(--c1)}24.95%,100%{fill:var(--ce)}}.c.c1d{fill:var(--c1);animation-name:c1d}@keyframes c1e{29.33%{fill:var(--c1)}29.35%,100%{fill:var(--ce)}}.c.c1e{fill:var(--c1);animation-name:c1e}@keyframes c1f{28.84%{fill:var(--c1)}28.86%,100%{fill:var(--ce)}}.c.c1f{fill:var(--c1);animation-name:c1f}@keyframes c1g{25.42%{fill:var(--c1)}25.44%,100%{fill:var(--ce)}}.c.c1g{fill:var(--c1);animation-name:c1g}@keyframes c1h{25.66%{fill:var(--c1)}25.68%,100%{fill:var(--ce)}}.c.c1h{fill:var(--c1);animation-name:c1h}@keyframes c1i{28.11%{fill:var(--c1)}28.13%,100%{fill:var(--ce)}}.c.c1i{fill:var(--c1);animation-name:c1i}@keyframes c1j{27.13%{fill:var(--c1)}27.15%,100%{fill:var(--ce)}}.c.c1j{fill:var(--c1);animation-name:c1j}@keyframes c1k{27.62%{fill:var(--c1)}27.64%,100%{fill:var(--ce)}}.c.c1k{fill:var(--c1);animation-name:c1k}@keyframes c1l{68.94%{fill:var(--c2)}68.96%,100%{fill:var(--ce)}}.c.c1l{fill:var(--c2);animation-name:c1l}@keyframes c1m{31.77%{fill:var(--c1)}31.79%,100%{fill:var(--ce)}}.c.c1m{fill:var(--c1);animation-name:c1m}@keyframes c1n{42.53%{fill:var(--c1)}42.55%,100%{fill:var(--ce)}}.c.c1n{fill:var(--c1);animation-name:c1n}@keyframes c1o{32.26%{fill:var(--c1)}32.28%,100%{fill:var(--ce)}}.c.c1o{fill:var(--c1);animation-name:c1o}@keyframes c1p{33.24%{fill:var(--c1)}33.26%,100%{fill:var(--ce)}}.c.c1p{fill:var(--c1);animation-name:c1p}@keyframes c1q{76.27%{fill:var(--c3)}76.29%,100%{fill:var(--ce)}}.c.c1q{fill:var(--c3);animation-name:c1q}@keyframes c1r{32.75%{fill:var(--c1)}32.77%,100%{fill:var(--ce)}}.c.c1r{fill:var(--c1);animation-name:c1r}@keyframes c1s{33.98%{fill:var(--c1)}34%,100%{fill:var(--ce)}}.c.c1s{fill:var(--c1);animation-name:c1s}@keyframes c1t{34.95%{fill:var(--c1)}34.97%,100%{fill:var(--ce)}}.c.c1t{fill:var(--c1);animation-name:c1t}@keyframes c1u{73.58%{fill:var(--c3)}73.6%,100%{fill:var(--ce)}}.c.c1u{fill:var(--c3);animation-name:c1u}@keyframes c1v{71.87%{fill:var(--c2)}71.89%,100%{fill:var(--ce)}}.c.c1v{fill:var(--c2);animation-name:c1v}@keyframes c1w{35.93%{fill:var(--c1)}35.95%,100%{fill:var(--ce)}}.c.c1w{fill:var(--c1);animation-name:c1w}@keyframes c1x{73.1%{fill:var(--c2)}73.12%,100%{fill:var(--ce)}}.c.c1x{fill:var(--c2);animation-name:c1x}@keyframes c1y{38.13%{fill:var(--c1)}38.15%,100%{fill:var(--ce)}}.c.c1y{fill:var(--c1);animation-name:c1y}.u{transform-origin:0 0;transform:scale(0,1);animation:none linear 40900ms infinite}@keyframes u0{0.23%{transform:scale(0.000,1)}0.25%,0.72%{transform:scale(0.020,1)}0.74%,0.97%{transform:scale(0.040,1)}0.99%,1.46%{transform:scale(0.060,1)}1.48%,1.7%{transform:scale(0.080,1)}1.72%,1.95%{transform:scale(0.100,1)}1.97%,2.19%{transform:scale(0.120,1)}2.21%,2.43%{transform:scale(0.140,1)}2.45%,2.68%{transform:scale(0.160,1)}2.7%,2.92%{transform:scale(0.180,1)}2.94%,3.17%{transform:scale(0.200,1)}3.19%,3.41%{transform:scale(0.220,1)}3.43%,3.66%{transform:scale(0.240,1)}3.68%,4.15%{transform:scale(0.260,1)}4.17%,4.88%{transform:scale(0.280,1)}4.9%,5.12%{transform:scale(0.300,1)}5.14%,5.37%{transform:scale(0.320,1)}5.39%,6.1%{transform:scale(0.340,1)}6.12%,6.59%{transform:scale(0.360,1)}6.61%,7.32%{transform:scale(0.380,1)}7.34%,8.3%{transform:scale(0.400,1)}8.32%,8.55%{transform:scale(0.420,1)}8.57%,8.79%{transform:scale(0.440,1)}8.81%,9.04%{transform:scale(0.460,1)}9.06%,9.53%{transform:scale(0.480,1)}9.55%,9.77%{transform:scale(0.500,1)}9.79%,11.48%{transform:scale(0.520,1)}11.5%,12.7%{transform:scale(0.540,1)}12.72%,15.88%{transform:scale(0.560,1)}15.9%,16.37%{transform:scale(0.580,1)}16.39%,16.62%{transform:scale(0.600,1)}16.64%,18.33%{transform:scale(0.620,1)}18.35%,24.93%{transform:scale(0.640,1)}24.95%,25.42%{transform:scale(0.660,1)}25.44%,25.66%{transform:scale(0.680,1)}25.68%,27.13%{transform:scale(0.700,1)}27.15%,27.62%{transform:scale(0.720,1)}27.64%,28.11%{transform:scale(0.740,1)}28.13%,28.84%{transform:scale(0.760,1)}28.86%,29.33%{transform:scale(0.780,1)}29.35%,31.77%{transform:scale(0.800,1)}31.79%,32.26%{transform:scale(0.820,1)}32.28%,32.75%{transform:scale(0.840,1)}32.77%,33.24%{transform:scale(0.860,1)}33.26%,33.98%{transform:scale(0.880,1)}34%,34.95%{transform:scale(0.900,1)}34.97%,35.93%{transform:scale(0.920,1)}35.95%,38.13%{transform:scale(0.940,1)}38.15%,42.53%{transform:scale(0.960,1)}42.55%,53.78%{transform:scale(0.980,1)}53.8%,100%{transform:scale(1.000,1)}}.u.u0{fill:var(--c1);animation-name:u0;transform-origin:0.0px 0}@keyframes u1{54.02%{transform:scale(0.000,1)}54.04%,54.76%{transform:scale(0.091,1)}54.78%,55%{transform:scale(0.182,1)}55.02%,55.74%{transform:scale(0.273,1)}55.76%,56.22%{transform:scale(0.364,1)}56.24%,57.94%{transform:scale(0.455,1)}57.96%,60.63%{transform:scale(0.545,1)}60.65%,63.07%{transform:scale(0.636,1)}63.09%,68.94%{transform:scale(0.727,1)}68.96%,71.87%{transform:scale(0.818,1)}71.89%,73.1%{transform:scale(0.909,1)}73.12%,100%{transform:scale(1.000,1)}}.u.u1{fill:var(--c2);animation-name:u1;transform-origin:597.2px 0}@keyframes u2{73.58%{transform:scale(0.000,1)}73.6%,76.27%{transform:scale(0.167,1)}76.29%,81.65%{transform:scale(0.333,1)}81.67%,85.08%{transform:scale(0.500,1)}85.1%,88.25%{transform:scale(0.667,1)}88.27%,89.23%{transform:scale(0.833,1)}89.25%,100%{transform:scale(1.000,1)}}.u.u2{fill:var(--c3);animation-name:u2;transform-origin:728.6px 0}@keyframes u3{90.7%{transform:scale(0.000,1)}90.72%,93.14%{transform:scale(0.250,1)}93.16%,93.39%{transform:scale(0.500,1)}93.41%,97.79%{transform:scale(0.750,1)}97.81%,100%{transform:scale(1.000,1)}}.u.u3{fill:var(--c4);animation-name:u3;transform-origin:800.2px 0}.s{shape-rendering:geometricPrecision;fill:var(--cs);animation:none linear 40900ms infinite}@keyframes s0{0%,99.76%{transform:translate(0px,-16px)}0.49%{transform:translate(0px,16px)}0.73%,52.57%,98.04%{transform:translate(16px,16px)}0.98%,52.32%{transform:translate(16px,32px)}1.22%,54.52%{transform:translate(32px,32px)}1.71%{transform:translate(32px,64px)}2.2%{transform:translate(64px,64px)}2.93%,51.34%{transform:translate(64px,16px)}3.67%{transform:translate(112px,16px)}3.91%{transform:translate(112px,0px)}4.16%{transform:translate(96px,0px)}5.38%{transform:translate(96px,80px)}6.11%{transform:translate(144px,80px)}6.36%,60.15%{transform:translate(144px,64px)}6.6%{transform:translate(128px,64px)}6.85%{transform:translate(128px,48px)}8.07%,62.35%{transform:translate(208px,48px)}8.31%{transform:translate(208px,32px)}8.56%{transform:translate(224px,32px)}9.05%{transform:translate(224px,0px)}9.78%,83.62%{transform:translate(176px,0px)}10.02%{transform:translate(176px,16px)}11.25%{transform:translate(256px,16px)}12.22%{transform:translate(256px,80px)}12.47%{transform:translate(240px,80px)}12.71%{transform:translate(240px,96px)}12.96%,92.67%{transform:translate(224px,96px)}13.2%{transform:translate(224px,80px)}15.65%,17.11%{transform:translate(64px,80px)}15.89%{transform:translate(64px,96px)}16.38%{transform:translate(32px,96px)}16.63%{transform:translate(32px,80px)}18.58%{transform:translate(64px,-16px)}24.69%{transform:translate(464px,-16px)}24.94%{transform:translate(464px,0px)}25.92%{transform:translate(528px,0px)}27.14%{transform:translate(528px,80px)}27.38%{transform:translate(544px,80px)}27.63%{transform:translate(544px,96px)}28.12%{transform:translate(512px,96px)}28.36%{transform:translate(512px,80px)}28.85%{transform:translate(480px,80px)}29.1%{transform:translate(480px,64px)}29.34%{transform:translate(464px,64px)}29.58%{transform:translate(464px,80px)}31.54%{transform:translate(592px,80px)}31.78%{transform:translate(592px,96px)}32.76%{transform:translate(656px,96px)}33.01%{transform:translate(656px,80px)}33.25%{transform:translate(640px,80px)}33.5%{transform:translate(640px,64px)}34.47%{transform:translate(704px,64px)}34.96%{transform:translate(704px,32px)}35.7%{transform:translate(752px,32px)}35.94%{transform:translate(752px,16px)}37.16%{transform:translate(832px,16px)}38.14%{transform:translate(832px,80px)}38.39%{transform:translate(816px,80px)}39.36%{transform:translate(816px,16px)}42.05%{transform:translate(640px,16px)}42.3%,69.68%{transform:translate(640px,0px)}42.54%{transform:translate(624px,0px)}42.79%{transform:translate(624px,16px)}51.59%{transform:translate(64px,32px)}53.06%{transform:translate(-16px,16px)}53.55%{transform:translate(-16px,48px)}53.79%,88.51%{transform:translate(0px,48px)}54.03%,57.46%{transform:translate(0px,32px)}55.01%{transform:translate(32px,0px)}55.75%{transform:translate(80px,0px)}56.23%{transform:translate(80px,32px)}57.95%{transform:translate(0px,64px)}60.64%{transform:translate(144px,96px)}60.88%,85.33%{transform:translate(160px,96px)}61.12%{transform:translate(160px,80px)}61.86%{transform:translate(208px,80px)}62.84%{transform:translate(240px,48px)}63.08%{transform:translate(240px,32px)}68.46%{transform:translate(592px,32px)}68.95%{transform:translate(592px,0px)}69.93%{transform:translate(640px,-16px)}71.64%{transform:translate(752px,-16px)}73.11%{transform:translate(752px,80px)}73.35%{transform:translate(736px,80px)}73.59%{transform:translate(736px,96px)}73.84%{transform:translate(720px,96px)}75.31%{transform:translate(720px,0px)}85.09%{transform:translate(176px,96px)}86.06%{transform:translate(160px,48px)}89.24%{transform:translate(0px,96px)}93.15%{transform:translate(224px,64px)}93.4%{transform:translate(240px,64px)}94.38%{transform:translate(240px,0px)}97.8%{transform:translate(16px,0px)}98.53%{transform:translate(48px,16px)}99.02%{transform:translate(48px,-16px)}}.s.s0{transform:translate(0px,-16px);animation-name:s0}@keyframes s1{0%,99.76%{transform:translate(16px,-16px)}0.24%{transform:translate(0px,-16px)}0.73%{transform:translate(0px,16px)}0.98%,52.81%,98.29%{transform:translate(16px,16px)}1.22%,52.57%{transform:translate(16px,32px)}1.47%,54.77%{transform:translate(32px,32px)}1.96%{transform:translate(32px,64px)}2.44%{transform:translate(64px,64px)}3.18%,51.59%{transform:translate(64px,16px)}3.91%{transform:translate(112px,16px)}4.16%{transform:translate(112px,0px)}4.4%{transform:translate(96px,0px)}5.62%{transform:translate(96px,80px)}6.36%{transform:translate(144px,80px)}6.6%,60.39%{transform:translate(144px,64px)}6.85%{transform:translate(128px,64px)}7.09%{transform:translate(128px,48px)}8.31%,62.59%{transform:translate(208px,48px)}8.56%{transform:translate(208px,32px)}8.8%{transform:translate(224px,32px)}9.29%{transform:translate(224px,0px)}10.02%,83.86%{transform:translate(176px,0px)}10.27%{transform:translate(176px,16px)}11.49%{transform:translate(256px,16px)}12.47%{transform:translate(256px,80px)}12.71%{transform:translate(240px,80px)}12.96%{transform:translate(240px,96px)}13.2%,92.91%{transform:translate(224px,96px)}13.45%{transform:translate(224px,80px)}15.89%,17.36%{transform:translate(64px,80px)}16.14%{transform:translate(64px,96px)}16.63%{transform:translate(32px,96px)}16.87%{transform:translate(32px,80px)}18.83%{transform:translate(64px,-16px)}24.94%{transform:translate(464px,-16px)}25.18%{transform:translate(464px,0px)}26.16%{transform:translate(528px,0px)}27.38%{transform:translate(528px,80px)}27.63%{transform:translate(544px,80px)}27.87%{transform:translate(544px,96px)}28.36%{transform:translate(512px,96px)}28.61%{transform:translate(512px,80px)}29.1%{transform:translate(480px,80px)}29.34%{transform:translate(480px,64px)}29.58%{transform:translate(464px,64px)}29.83%{transform:translate(464px,80px)}31.78%{transform:translate(592px,80px)}32.03%{transform:translate(592px,96px)}33.01%{transform:translate(656px,96px)}33.25%{transform:translate(656px,80px)}33.5%{transform:translate(640px,80px)}33.74%{transform:translate(640px,64px)}34.72%{transform:translate(704px,64px)}35.21%{transform:translate(704px,32px)}35.94%{transform:translate(752px,32px)}36.19%{transform:translate(752px,16px)}37.41%{transform:translate(832px,16px)}38.39%{transform:translate(832px,80px)}38.63%{transform:translate(816px,80px)}39.61%{transform:translate(816px,16px)}42.3%{transform:translate(640px,16px)}42.54%,69.93%{transform:translate(640px,0px)}42.79%{transform:translate(624px,0px)}43.03%{transform:translate(624px,16px)}51.83%{transform:translate(64px,32px)}53.3%{transform:translate(-16px,16px)}53.79%{transform:translate(-16px,48px)}54.03%,88.75%{transform:translate(0px,48px)}54.28%,57.7%{transform:translate(0px,32px)}55.26%{transform:translate(32px,0px)}55.99%{transform:translate(80px,0px)}56.48%{transform:translate(80px,32px)}58.19%{transform:translate(0px,64px)}60.88%{transform:translate(144px,96px)}61.12%,85.57%{transform:translate(160px,96px)}61.37%{transform:translate(160px,80px)}62.1%{transform:translate(208px,80px)}63.08%{transform:translate(240px,48px)}63.33%{transform:translate(240px,32px)}68.7%{transform:translate(592px,32px)}69.19%{transform:translate(592px,0px)}70.17%{transform:translate(640px,-16px)}71.88%{transform:translate(752px,-16px)}73.35%{transform:translate(752px,80px)}73.59%{transform:translate(736px,80px)}73.84%{transform:translate(736px,96px)}74.08%{transform:translate(720px,96px)}75.55%{transform:translate(720px,0px)}85.33%{transform:translate(176px,96px)}86.31%{transform:translate(160px,48px)}89.49%{transform:translate(0px,96px)}93.4%{transform:translate(224px,64px)}93.64%{transform:translate(240px,64px)}94.62%{transform:translate(240px,0px)}98.04%{transform:translate(16px,0px)}98.78%{transform:translate(48px,16px)}99.27%{transform:translate(48px,-16px)}}.s.s1{transform:translate(16px,-16px);animation-name:s1}@keyframes s2{0%,99.76%{transform:translate(32px,-16px)}0.49%{transform:translate(0px,-16px)}0.98%{transform:translate(0px,16px)}1.22%,53.06%,98.53%{transform:translate(16px,16px)}1.47%,52.81%{transform:translate(16px,32px)}1.71%,55.01%{transform:translate(32px,32px)}2.2%{transform:translate(32px,64px)}2.69%{transform:translate(64px,64px)}3.42%,51.83%{transform:translate(64px,16px)}4.16%{transform:translate(112px,16px)}4.4%{transform:translate(112px,0px)}4.65%{transform:translate(96px,0px)}5.87%{transform:translate(96px,80px)}6.6%{transform:translate(144px,80px)}6.85%,60.64%{transform:translate(144px,64px)}7.09%{transform:translate(128px,64px)}7.33%{transform:translate(128px,48px)}8.56%,62.84%{transform:translate(208px,48px)}8.8%{transform:translate(208px,32px)}9.05%{transform:translate(224px,32px)}9.54%{transform:translate(224px,0px)}10.27%,84.11%{transform:translate(176px,0px)}10.51%{transform:translate(176px,16px)}11.74%{transform:translate(256px,16px)}12.71%{transform:translate(256px,80px)}12.96%{transform:translate(240px,80px)}13.2%{transform:translate(240px,96px)}13.45%,93.15%{transform:translate(224px,96px)}13.69%{transform:translate(224px,80px)}16.14%,17.6%{transform:translate(64px,80px)}16.38%{transform:translate(64px,96px)}16.87%{transform:translate(32px,96px)}17.11%{transform:translate(32px,80px)}19.07%{transform:translate(64px,-16px)}25.18%{transform:translate(464px,-16px)}25.43%{transform:translate(464px,0px)}26.41%{transform:translate(528px,0px)}27.63%{transform:translate(528px,80px)}27.87%{transform:translate(544px,80px)}28.12%{transform:translate(544px,96px)}28.61%{transform:translate(512px,96px)}28.85%{transform:translate(512px,80px)}29.34%{transform:translate(480px,80px)}29.58%{transform:translate(480px,64px)}29.83%{transform:translate(464px,64px)}30.07%{transform:translate(464px,80px)}32.03%{transform:translate(592px,80px)}32.27%{transform:translate(592px,96px)}33.25%{transform:translate(656px,96px)}33.5%{transform:translate(656px,80px)}33.74%{transform:translate(640px,80px)}33.99%{transform:translate(640px,64px)}34.96%{transform:translate(704px,64px)}35.45%{transform:translate(704px,32px)}36.19%{transform:translate(752px,32px)}36.43%{transform:translate(752px,16px)}37.65%{transform:translate(832px,16px)}38.63%{transform:translate(832px,80px)}38.88%{transform:translate(816px,80px)}39.85%{transform:translate(816px,16px)}42.54%{transform:translate(640px,16px)}42.79%,70.17%{transform:translate(640px,0px)}43.03%{transform:translate(624px,0px)}43.28%{transform:translate(624px,16px)}52.08%{transform:translate(64px,32px)}53.55%{transform:translate(-16px,16px)}54.03%{transform:translate(-16px,48px)}54.28%,89%{transform:translate(0px,48px)}54.52%,57.95%{transform:translate(0px,32px)}55.5%{transform:translate(32px,0px)}56.23%{transform:translate(80px,0px)}56.72%{transform:translate(80px,32px)}58.44%{transform:translate(0px,64px)}61.12%{transform:translate(144px,96px)}61.37%,85.82%{transform:translate(160px,96px)}61.61%{transform:translate(160px,80px)}62.35%{transform:translate(208px,80px)}63.33%{transform:translate(240px,48px)}63.57%{transform:translate(240px,32px)}68.95%{transform:translate(592px,32px)}69.44%{transform:translate(592px,0px)}70.42%{transform:translate(640px,-16px)}72.13%{transform:translate(752px,-16px)}73.59%{transform:translate(752px,80px)}73.84%{transform:translate(736px,80px)}74.08%{transform:translate(736px,96px)}74.33%{transform:translate(720px,96px)}75.79%{transform:translate(720px,0px)}85.57%{transform:translate(176px,96px)}86.55%{transform:translate(160px,48px)}89.73%{transform:translate(0px,96px)}93.64%{transform:translate(224px,64px)}93.89%{transform:translate(240px,64px)}94.87%{transform:translate(240px,0px)}98.29%{transform:translate(16px,0px)}99.02%{transform:translate(48px,16px)}99.51%{transform:translate(48px,-16px)}}.s.s2{transform:translate(32px,-16px);animation-name:s2}@keyframes s3{0%,99.76%{transform:translate(48px,-16px)}0.73%{transform:translate(0px,-16px)}1.22%{transform:translate(0px,16px)}1.47%,53.3%,98.78%{transform:translate(16px,16px)}1.71%,53.06%{transform:translate(16px,32px)}1.96%,55.26%{transform:translate(32px,32px)}2.44%{transform:translate(32px,64px)}2.93%{transform:translate(64px,64px)}3.67%,52.08%{transform:translate(64px,16px)}4.4%{transform:translate(112px,16px)}4.65%{transform:translate(112px,0px)}4.89%{transform:translate(96px,0px)}6.11%{transform:translate(96px,80px)}6.85%{transform:translate(144px,80px)}7.09%,60.88%{transform:translate(144px,64px)}7.33%{transform:translate(128px,64px)}7.58%{transform:translate(128px,48px)}8.8%,63.08%{transform:translate(208px,48px)}9.05%{transform:translate(208px,32px)}9.29%{transform:translate(224px,32px)}9.78%{transform:translate(224px,0px)}10.51%,84.35%{transform:translate(176px,0px)}10.76%{transform:translate(176px,16px)}11.98%{transform:translate(256px,16px)}12.96%{transform:translate(256px,80px)}13.2%{transform:translate(240px,80px)}13.45%{transform:translate(240px,96px)}13.69%,93.4%{transform:translate(224px,96px)}13.94%{transform:translate(224px,80px)}16.38%,17.85%{transform:translate(64px,80px)}16.63%{transform:translate(64px,96px)}17.11%{transform:translate(32px,96px)}17.36%{transform:translate(32px,80px)}19.32%{transform:translate(64px,-16px)}25.43%{transform:translate(464px,-16px)}25.67%{transform:translate(464px,0px)}26.65%{transform:translate(528px,0px)}27.87%{transform:translate(528px,80px)}28.12%{transform:translate(544px,80px)}28.36%{transform:translate(544px,96px)}28.85%{transform:translate(512px,96px)}29.1%{transform:translate(512px,80px)}29.58%{transform:translate(480px,80px)}29.83%{transform:translate(480px,64px)}30.07%{transform:translate(464px,64px)}30.32%{transform:translate(464px,80px)}32.27%{transform:translate(592px,80px)}32.52%{transform:translate(592px,96px)}33.5%{transform:translate(656px,96px)}33.74%{transform:translate(656px,80px)}33.99%{transform:translate(640px,80px)}34.23%{transform:translate(640px,64px)}35.21%{transform:translate(704px,64px)}35.7%{transform:translate(704px,32px)}36.43%{transform:translate(752px,32px)}36.67%{transform:translate(752px,16px)}37.9%{transform:translate(832px,16px)}38.88%{transform:translate(832px,80px)}39.12%{transform:translate(816px,80px)}40.1%{transform:translate(816px,16px)}42.79%{transform:translate(640px,16px)}43.03%,70.42%{transform:translate(640px,0px)}43.28%{transform:translate(624px,0px)}43.52%{transform:translate(624px,16px)}52.32%{transform:translate(64px,32px)}53.79%{transform:translate(-16px,16px)}54.28%{transform:translate(-16px,48px)}54.52%,89.24%{transform:translate(0px,48px)}54.77%,58.19%{transform:translate(0px,32px)}55.75%{transform:translate(32px,0px)}56.48%{transform:translate(80px,0px)}56.97%{transform:translate(80px,32px)}58.68%{transform:translate(0px,64px)}61.37%{transform:translate(144px,96px)}61.61%,86.06%{transform:translate(160px,96px)}61.86%{transform:translate(160px,80px)}62.59%{transform:translate(208px,80px)}63.57%{transform:translate(240px,48px)}63.81%{transform:translate(240px,32px)}69.19%{transform:translate(592px,32px)}69.68%{transform:translate(592px,0px)}70.66%{transform:translate(640px,-16px)}72.37%{transform:translate(752px,-16px)}73.84%{transform:translate(752px,80px)}74.08%{transform:translate(736px,80px)}74.33%{transform:translate(736px,96px)}74.57%{transform:translate(720px,96px)}76.04%{transform:translate(720px,0px)}85.82%{transform:translate(176px,96px)}86.8%{transform:translate(160px,48px)}89.98%{transform:translate(0px,96px)}93.89%{transform:translate(224px,64px)}94.13%{transform:translate(240px,64px)}95.11%{transform:translate(240px,0px)}98.53%{transform:translate(16px,0px)}99.27%{transform:translate(48px,16px)}}.s.s3{transform:translate(48px,-16px);animation-name:s3}</style><rect class="c c0" x="2" y="2" rx="2" ry="2"/><rect class="c" x="2" y="18" rx="2" ry="2"/><rect class="c c1" x="2" y="34" rx="2" ry="2"/><rect class="c c2" x="2" y="50" rx="2" ry="2"/><rect class="c c3" x="2" y="66" rx="2" ry="2"/><rect class="c" x="2" y="82" rx="2" ry="2"/><rect class="c c4" x="2" y="98" rx="2" ry="2"/><rect class="c c5" x="18" y="2" rx="2" ry="2"/><rect class="c c6" x="18" y="18" rx="2" ry="2"/><rect class="c c7" x="18" y="34" rx="2" ry="2"/><rect class="c c8" x="18" y="50" rx="2" ry="2"/><rect class="c" x="18" y="66" rx="2" ry="2"/><rect class="c" x="18" y="82" rx="2" ry="2"/><rect class="c" x="18" y="98" rx="2" ry="2"/><rect class="c c9" x="34" y="2" rx="2" ry="2"/><rect class="c ca" x="34" y="18" rx="2" ry="2"/><rect class="c" x="34" y="34" rx="2" ry="2"/><rect class="c cb" x="34" y="50" rx="2" ry="2"/><rect class="c cc" x="34" y="66" rx="2" ry="2"/><rect class="c cd" x="34" y="82" rx="2" ry="2"/><rect class="c ce" x="34" y="98" rx="2" ry="2"/><rect class="c" x="50" y="2" rx="2" ry="2"/><rect class="c" x="50" y="18" rx="2" ry="2"/><rect class="c" x="50" y="34" rx="2" ry="2"/><rect class="c" x="50" y="50" rx="2" ry="2"/><rect class="c cf" x="50" y="66" rx="2" ry="2"/><rect class="c" x="50" y="82" rx="2" ry="2"/><rect class="c" x="50" y="98" rx="2" ry="2"/><rect class="c cg" x="66" y="2" rx="2" ry="2"/><rect class="c ch" x="66" y="18" rx="2" ry="2"/><rect class="c ci" x="66" y="34" rx="2" ry="2"/><rect class="c cj" x="66" y="50" rx="2" ry="2"/><rect class="c ck" x="66" y="66" rx="2" ry="2"/><rect class="c" x="66" y="82" rx="2" ry="2"/><rect class="c cl" x="66" y="98" rx="2" ry="2"/><rect class="c cm" x="82" y="2" rx="2" ry="2"/><rect class="c cn" x="82" y="18" rx="2" ry="2"/><rect class="c co" x="82" y="34" rx="2" ry="2"/><rect class="c" x="82" y="50" rx="2" ry="2"/><rect class="c" x="82" y="66" rx="2" ry="2"/><rect class="c" x="82" y="82" rx="2" ry="2"/><rect class="c" x="82" y="98" rx="2" ry="2"/><rect class="c cp" x="98" y="2" rx="2" ry="2"/><rect class="c cq" x="98" y="18" rx="2" ry="2"/><rect class="c" x="98" y="34" rx="2" ry="2"/><rect class="c cr" x="98" y="50" rx="2" ry="2"/><rect class="c cs" x="98" y="66" rx="2" ry="2"/><rect class="c ct" x="98" y="82" rx="2" ry="2"/><rect class="c cu" x="98" y="98" rx="2" ry="2"/><rect class="c" x="114" y="2" rx="2" ry="2"/><rect class="c cv" x="114" y="18" rx="2" ry="2"/><rect class="c" x="114" y="34" rx="2" ry="2"/><rect class="c" x="114" y="50" rx="2" ry="2"/><rect class="c" x="114" y="66" rx="2" ry="2"/><rect class="c" x="114" y="82" rx="2" ry="2"/><rect class="c" x="114" y="98" rx="2" ry="2"/><rect class="c" x="130" y="2" rx="2" ry="2"/><rect class="c" x="130" y="18" rx="2" ry="2"/><rect class="c" x="130" y="34" rx="2" ry="2"/><rect class="c" x="130" y="50" rx="2" ry="2"/><rect class="c cw" x="130" y="66" rx="2" ry="2"/><rect class="c" x="130" y="82" rx="2" ry="2"/><rect class="c" x="130" y="98" rx="2" ry="2"/><rect class="c" x="146" y="2" rx="2" ry="2"/><rect class="c" x="146" y="18" rx="2" ry="2"/><rect class="c" x="146" y="34" rx="2" ry="2"/><rect class="c" x="146" y="50" rx="2" ry="2"/><rect class="c" x="146" y="66" rx="2" ry="2"/><rect class="c cx" x="146" y="82" rx="2" ry="2"/><rect class="c cy" x="146" y="98" rx="2" ry="2"/><rect class="c" x="162" y="2" rx="2" ry="2"/><rect class="c" x="162" y="18" rx="2" ry="2"/><rect class="c" x="162" y="34" rx="2" ry="2"/><rect class="c cz" x="162" y="50" rx="2" ry="2"/><rect class="c" x="162" y="66" rx="2" ry="2"/><rect class="c" x="162" y="82" rx="2" ry="2"/><rect class="c" x="162" y="98" rx="2" ry="2"/><rect class="c c10" x="178" y="2" rx="2" ry="2"/><rect class="c" x="178" y="18" rx="2" ry="2"/><rect class="c" x="178" y="34" rx="2" ry="2"/><rect class="c" x="178" y="50" rx="2" ry="2"/><rect class="c" x="178" y="66" rx="2" ry="2"/><rect class="c" x="178" y="82" rx="2" ry="2"/><rect class="c c11" x="178" y="98" rx="2" ry="2"/><rect class="c c12" x="194" y="2" rx="2" ry="2"/><rect class="c" x="194" y="18" rx="2" ry="2"/><rect class="c" x="194" y="34" rx="2" ry="2"/><rect class="c" x="194" y="50" rx="2" ry="2"/><rect class="c" x="194" y="66" rx="2" ry="2"/><rect class="c" x="194" y="82" rx="2" ry="2"/><rect class="c" x="194" y="98" rx="2" ry="2"/><rect class="c" x="210" y="2" rx="2" ry="2"/><rect class="c" x="210" y="18" rx="2" ry="2"/><rect class="c c13" x="210" y="34" rx="2" ry="2"/><rect class="c" x="210" y="50" rx="2" ry="2"/><rect class="c" x="210" y="66" rx="2" ry="2"/><rect class="c" x="210" y="82" rx="2" ry="2"/><rect class="c" x="210" y="98" rx="2" ry="2"/><rect class="c c14" x="226" y="2" rx="2" ry="2"/><rect class="c c15" x="226" y="18" rx="2" ry="2"/><rect class="c c16" x="226" y="34" rx="2" ry="2"/><rect class="c" x="226" y="50" rx="2" ry="2"/><rect class="c c17" x="226" y="66" rx="2" ry="2"/><rect class="c" x="226" y="82" rx="2" ry="2"/><rect class="c" x="226" y="98" rx="2" ry="2"/><rect class="c" x="242" y="2" rx="2" ry="2"/><rect class="c" x="242" y="18" rx="2" ry="2"/><rect class="c c18" x="242" y="34" rx="2" ry="2"/><rect class="c" x="242" y="50" rx="2" ry="2"/><rect class="c c19" x="242" y="66" rx="2" ry="2"/><rect class="c" x="242" y="82" rx="2" ry="2"/><rect class="c c1a" x="242" y="98" rx="2" ry="2"/><rect class="c" x="258" y="2" rx="2" ry="2"/><rect class="c" x="258" y="18" rx="2" ry="2"/><rect class="c c1b" x="258" y="34" rx="2" ry="2"/><rect class="c" x="258" y="50" rx="2" ry="2"/><rect class="c" x="258" y="66" rx="2" ry="2"/><rect class="c" x="258" y="82" rx="2" ry="2"/><rect class="c" x="258" y="98" rx="2" ry="2"/><rect class="c" x="274" y="2" rx="2" ry="2"/><rect class="c" x="274" y="18" rx="2" ry="2"/><rect class="c" x="274" y="34" rx="2" ry="2"/><rect class="c" x="274" y="50" rx="2" ry="2"/><rect class="c" x="274" y="66" rx="2" ry="2"/><rect class="c" x="274" y="82" rx="2" ry="2"/><rect class="c" x="274" y="98" rx="2" ry="2"/><rect class="c" x="290" y="2" rx="2" ry="2"/><rect class="c" x="290" y="18" rx="2" ry="2"/><rect class="c" x="290" y="34" rx="2" ry="2"/><rect class="c" x="290" y="50" rx="2" ry="2"/><rect class="c" x="290" y="66" rx="2" ry="2"/><rect class="c" x="290" y="82" rx="2" ry="2"/><rect class="c" x="290" y="98" rx="2" ry="2"/><rect class="c c1c" x="306" y="2" rx="2" ry="2"/><rect class="c" x="306" y="18" rx="2" ry="2"/><rect class="c" x="306" y="34" rx="2" ry="2"/><rect class="c" x="306" y="50" rx="2" ry="2"/><rect class="c" x="306" y="66" rx="2" ry="2"/><rect class="c" x="306" y="82" rx="2" ry="2"/><rect class="c" x="306" y="98" rx="2" ry="2"/><rect class="c" x="322" y="2" rx="2" ry="2"/><rect class="c" x="322" y="18" rx="2" ry="2"/><rect class="c" x="322" y="34" rx="2" ry="2"/><rect class="c" x="322" y="50" rx="2" ry="2"/><rect class="c" x="322" y="66" rx="2" ry="2"/><rect class="c" x="322" y="82" rx="2" ry="2"/><rect class="c" x="322" y="98" rx="2" ry="2"/><rect class="c" x="338" y="2" rx="2" ry="2"/><rect class="c" x="338" y="18" rx="2" ry="2"/><rect class="c" x="338" y="34" rx="2" ry="2"/><rect class="c" x="338" y="50" rx="2" ry="2"/><rect class="c" x="338" y="66" rx="2" ry="2"/><rect class="c" x="338" y="82" rx="2" ry="2"/><rect class="c" x="338" y="98" rx="2" ry="2"/><rect class="c" x="354" y="2" rx="2" ry="2"/><rect class="c" x="354" y="18" rx="2" ry="2"/><rect class="c" x="354" y="34" rx="2" ry="2"/><rect class="c" x="354" y="50" rx="2" ry="2"/><rect class="c" x="354" y="66" rx="2" ry="2"/><rect class="c" x="354" y="82" rx="2" ry="2"/><rect class="c" x="354" y="98" rx="2" ry="2"/><rect class="c" x="370" y="2" rx="2" ry="2"/><rect class="c" x="370" y="18" rx="2" ry="2"/><rect class="c" x="370" y="34" rx="2" ry="2"/><rect class="c" x="370" y="50" rx="2" ry="2"/><rect class="c" x="370" y="66" rx="2" ry="2"/><rect class="c" x="370" y="82" rx="2" ry="2"/><rect class="c" x="370" y="98" rx="2" ry="2"/><rect class="c" x="386" y="2" rx="2" ry="2"/><rect class="c" x="386" y="18" rx="2" ry="2"/><rect class="c" x="386" y="34" rx="2" ry="2"/><rect class="c" x="386" y="50" rx="2" ry="2"/><rect class="c" x="386" y="66" rx="2" ry="2"/><rect class="c" x="386" y="82" rx="2" ry="2"/><rect class="c" x="386" y="98" rx="2" ry="2"/><rect class="c" x="402" y="2" rx="2" ry="2"/><rect class="c" x="402" y="18" rx="2" ry="2"/><rect class="c" x="402" y="34" rx="2" ry="2"/><rect class="c" x="402" y="50" rx="2" ry="2"/><rect class="c" x="402" y="66" rx="2" ry="2"/><rect class="c" x="402" y="82" rx="2" ry="2"/><rect class="c" x="402" y="98" rx="2" ry="2"/><rect class="c" x="418" y="2" rx="2" ry="2"/><rect class="c" x="418" y="18" rx="2" ry="2"/><rect class="c" x="418" y="34" rx="2" ry="2"/><rect class="c" x="418" y="50" rx="2" ry="2"/><rect class="c" x="418" y="66" rx="2" ry="2"/><rect class="c" x="418" y="82" rx="2" ry="2"/><rect class="c" x="418" y="98" rx="2" ry="2"/><rect class="c" x="434" y="2" rx="2" ry="2"/><rect class="c" x="434" y="18" rx="2" ry="2"/><rect class="c" x="434" y="34" rx="2" ry="2"/><rect class="c" x="434" y="50" rx="2" ry="2"/><rect class="c" x="434" y="66" rx="2" ry="2"/><rect class="c" x="434" y="82" rx="2" ry="2"/><rect class="c" x="434" y="98" rx="2" ry="2"/><rect class="c" x="450" y="2" rx="2" ry="2"/><rect class="c" x="450" y="18" rx="2" ry="2"/><rect class="c" x="450" y="34" rx="2" ry="2"/><rect class="c" x="450" y="50" rx="2" ry="2"/><rect class="c" x="450" y="66" rx="2" ry="2"/><rect class="c" x="450" y="82" rx="2" ry="2"/><rect class="c" x="450" y="98" rx="2" ry="2"/><rect class="c c1d" x="466" y="2" rx="2" ry="2"/><rect class="c" x="466" y="18" rx="2" ry="2"/><rect class="c" x="466" y="34" rx="2" ry="2"/><rect class="c" x="466" y="50" rx="2" ry="2"/><rect class="c c1e" x="466" y="66" rx="2" ry="2"/><rect class="c" x="466" y="82" rx="2" ry="2"/><rect class="c" x="466" y="98" rx="2" ry="2"/><rect class="c" x="482" y="2" rx="2" ry="2"/><rect class="c" x="482" y="18" rx="2" ry="2"/><rect class="c" x="482" y="34" rx="2" ry="2"/><rect class="c" x="482" y="50" rx="2" ry="2"/><rect class="c" x="482" y="66" rx="2" ry="2"/><rect class="c c1f" x="482" y="82" rx="2" ry="2"/><rect class="c" x="482" y="98" rx="2" ry="2"/><rect class="c c1g" x="498" y="2" rx="2" ry="2"/><rect class="c" x="498" y="18" rx="2" ry="2"/><rect class="c" x="498" y="34" rx="2" ry="2"/><rect class="c" x="498" y="50" rx="2" ry="2"/><rect class="c" x="498" y="66" rx="2" ry="2"/><rect class="c" x="498" y="82" rx="2" ry="2"/><rect class="c" x="498" y="98" rx="2" ry="2"/><rect class="c c1h" x="514" y="2" rx="2" ry="2"/><rect class="c" x="514" y="18" rx="2" ry="2"/><rect class="c" x="514" y="34" rx="2" ry="2"/><rect class="c" x="514" y="50" rx="2" ry="2"/><rect class="c" x="514" y="66" rx="2" ry="2"/><rect class="c" x="514" y="82" rx="2" ry="2"/><rect class="c c1i" x="514" y="98" rx="2" ry="2"/><rect class="c" x="530" y="2" rx="2" ry="2"/><rect class="c" x="530" y="18" rx="2" ry="2"/><rect class="c" x="530" y="34" rx="2" ry="2"/><rect class="c" x="530" y="50" rx="2" ry="2"/><rect class="c" x="530" y="66" rx="2" ry="2"/><rect class="c c1j" x="530" y="82" rx="2" ry="2"/><rect class="c" x="530" y="98" rx="2" ry="2"/><rect class="c" x="546" y="2" rx="2" ry="2"/><rect class="c" x="546" y="18" rx="2" ry="2"/><rect class="c" x="546" y="34" rx="2" ry="2"/><rect class="c" x="546" y="50" rx="2" ry="2"/><rect class="c" x="546" y="66" rx="2" ry="2"/><rect class="c" x="546" y="82" rx="2" ry="2"/><rect class="c c1k" x="546" y="98" rx="2" ry="2"/><rect class="c" x="562" y="2" rx="2" ry="2"/><rect class="c" x="562" y="18" rx="2" ry="2"/><rect class="c" x="562" y="34" rx="2" ry="2"/><rect class="c" x="562" y="50" rx="2" ry="2"/><rect class="c" x="562" y="66" rx="2" ry="2"/><rect class="c" x="562" y="82" rx="2" ry="2"/><rect class="c" x="562" y="98" rx="2" ry="2"/><rect class="c" x="578" y="2" rx="2" ry="2"/><rect class="c" x="578" y="18" rx="2" ry="2"/><rect class="c" x="578" y="34" rx="2" ry="2"/><rect class="c" x="578" y="50" rx="2" ry="2"/><rect class="c" x="578" y="66" rx="2" ry="2"/><rect class="c" x="578" y="82" rx="2" ry="2"/><rect class="c" x="578" y="98" rx="2" ry="2"/><rect class="c c1l" x="594" y="2" rx="2" ry="2"/><rect class="c" x="594" y="18" rx="2" ry="2"/><rect class="c" x="594" y="34" rx="2" ry="2"/><rect class="c" x="594" y="50" rx="2" ry="2"/><rect class="c" x="594" y="66" rx="2" ry="2"/><rect class="c" x="594" y="82" rx="2" ry="2"/><rect class="c c1m" x="594" y="98" rx="2" ry="2"/><rect class="c" x="610" y="2" rx="2" ry="2"/><rect class="c" x="610" y="18" rx="2" ry="2"/><rect class="c" x="610" y="34" rx="2" ry="2"/><rect class="c" x="610" y="50" rx="2" ry="2"/><rect class="c" x="610" y="66" rx="2" ry="2"/><rect class="c" x="610" y="82" rx="2" ry="2"/><rect class="c" x="610" y="98" rx="2" ry="2"/><rect class="c c1n" x="626" y="2" rx="2" ry="2"/><rect class="c" x="626" y="18" rx="2" ry="2"/><rect class="c" x="626" y="34" rx="2" ry="2"/><rect class="c" x="626" y="50" rx="2" ry="2"/><rect class="c" x="626" y="66" rx="2" ry="2"/><rect class="c" x="626" y="82" rx="2" ry="2"/><rect class="c c1o" x="626" y="98" rx="2" ry="2"/><rect class="c" x="642" y="2" rx="2" ry="2"/><rect class="c" x="642" y="18" rx="2" ry="2"/><rect class="c" x="642" y="34" rx="2" ry="2"/><rect class="c" x="642" y="50" rx="2" ry="2"/><rect class="c" x="642" y="66" rx="2" ry="2"/><rect class="c c1p" x="642" y="82" rx="2" ry="2"/><rect class="c" x="642" y="98" rx="2" ry="2"/><rect class="c c1q" x="658" y="2" rx="2" ry="2"/><rect class="c" x="658" y="18" rx="2" ry="2"/><rect class="c" x="658" y="34" rx="2" ry="2"/><rect class="c" x="658" y="50" rx="2" ry="2"/><rect class="c" x="658" y="66" rx="2" ry="2"/><rect class="c" x="658" y="82" rx="2" ry="2"/><rect class="c c1r" x="658" y="98" rx="2" ry="2"/><rect class="c" x="674" y="2" rx="2" ry="2"/><rect class="c" x="674" y="18" rx="2" ry="2"/><rect class="c" x="674" y="34" rx="2" ry="2"/><rect class="c" x="674" y="50" rx="2" ry="2"/><rect class="c c1s" x="674" y="66" rx="2" ry="2"/><rect class="c" x="674" y="82" rx="2" ry="2"/><rect class="c" x="674" y="98" rx="2" ry="2"/><rect class="c" x="690" y="2" rx="2" ry="2"/><rect class="c" x="690" y="18" rx="2" ry="2"/><rect class="c" x="690" y="34" rx="2" ry="2"/><rect class="c" x="690" y="50" rx="2" ry="2"/><rect class="c" x="690" y="66" rx="2" ry="2"/><rect class="c" x="690" y="82" rx="2" ry="2"/><rect class="c" x="690" y="98" rx="2" ry="2"/><rect class="c" x="706" y="2" rx="2" ry="2"/><rect class="c" x="706" y="18" rx="2" ry="2"/><rect class="c c1t" x="706" y="34" rx="2" ry="2"/><rect class="c" x="706" y="50" rx="2" ry="2"/><rect class="c" x="706" y="66" rx="2" ry="2"/><rect class="c" x="706" y="82" rx="2" ry="2"/><rect class="c" x="706" y="98" rx="2" ry="2"/><rect class="c" x="722" y="2" rx="2" ry="2"/><rect class="c" x="722" y="18" rx="2" ry="2"/><rect class="c" x="722" y="34" rx="2" ry="2"/><rect class="c" x="722" y="50" rx="2" ry="2"/><rect class="c" x="722" y="66" rx="2" ry="2"/><rect class="c" x="722" y="82" rx="2" ry="2"/><rect class="c" x="722" y="98" rx="2" ry="2"/><rect class="c" x="738" y="2" rx="2" ry="2"/><rect class="c" x="738" y="18" rx="2" ry="2"/><rect class="c" x="738" y="34" rx="2" ry="2"/><rect class="c" x="738" y="50" rx="2" ry="2"/><rect class="c" x="738" y="66" rx="2" ry="2"/><rect class="c" x="738" y="82" rx="2" ry="2"/><rect class="c c1u" x="738" y="98" rx="2" ry="2"/><rect class="c c1v" x="754" y="2" rx="2" ry="2"/><rect class="c c1w" x="754" y="18" rx="2" ry="2"/><rect class="c" x="754" y="34" rx="2" ry="2"/><rect class="c" x="754" y="50" rx="2" ry="2"/><rect class="c" x="754" y="66" rx="2" ry="2"/><rect class="c c1x" x="754" y="82" rx="2" ry="2"/><rect class="c" x="754" y="98" rx="2" ry="2"/><rect class="c" x="770" y="2" rx="2" ry="2"/><rect class="c" x="770" y="18" rx="2" ry="2"/><rect class="c" x="770" y="34" rx="2" ry="2"/><rect class="c" x="770" y="50" rx="2" ry="2"/><rect class="c" x="770" y="66" rx="2" ry="2"/><rect class="c" x="770" y="82" rx="2" ry="2"/><rect class="c" x="770" y="98" rx="2" ry="2"/><rect class="c" x="786" y="2" rx="2" ry="2"/><rect class="c" x="786" y="18" rx="2" ry="2"/><rect class="c" x="786" y="34" rx="2" ry="2"/><rect class="c" x="786" y="50" rx="2" ry="2"/><rect class="c" x="786" y="66" rx="2" ry="2"/><rect class="c" x="786" y="82" rx="2" ry="2"/><rect class="c" x="786" y="98" rx="2" ry="2"/><rect class="c" x="802" y="2" rx="2" ry="2"/><rect class="c" x="802" y="18" rx="2" ry="2"/><rect class="c" x="802" y="34" rx="2" ry="2"/><rect class="c" x="802" y="50" rx="2" ry="2"/><rect class="c" x="802" y="66" rx="2" ry="2"/><rect class="c" x="802" y="82" rx="2" ry="2"/><rect class="c" x="802" y="98" rx="2" ry="2"/><rect class="c" x="818" y="2" rx="2" ry="2"/><rect class="c" x="818" y="18" rx="2" ry="2"/><rect class="c" x="818" y="34" rx="2" ry="2"/><rect class="c" x="818" y="50" rx="2" ry="2"/><rect class="c" x="818" y="66" rx="2" ry="2"/><rect class="c" x="818" y="82" rx="2" ry="2"/><rect class="c" x="818" y="98" rx="2" ry="2"/><rect class="c" x="834" y="2" rx="2" ry="2"/><rect class="c" x="834" y="18" rx="2" ry="2"/><rect class="c" x="834" y="34" rx="2" ry="2"/><rect class="c" x="834" y="50" rx="2" ry="2"/><rect class="c" x="834" y="66" rx="2" ry="2"/><rect class="c c1y" x="834" y="82" rx="2" ry="2"/><rect class="c" x="834" y="98" rx="2" ry="2"/><rect class="u u0" height="12" width="597.8" x="0.0" y="144"/><rect class="u u1" height="12" width="132.0" x="597.2" y="144"/><rect class="u u2" height="12" width="72.3" x="728.6" y="144"/><rect class="u u3" height="12" width="48.4" x="800.2" y="144"/><rect class="s s0" x="0.8" y="0.8" width="14.4" height="14.4" rx="4.5" ry="4.5"/><rect class="s s1" x="1.8" y="1.8" width="12.3" height="12.3" rx="4.1" ry="4.1"/><rect class="s s2" x="2.6" y="2.6" width="10.8" height="10.8" rx="3.6" ry="3.6"/><rect class="s s3" x="3.0" y="3.0" width="9.9" height="9.9" rx="3.3" ry="3.3"/></svg>