<svg xmlns="http://www.w3.org/2000/svg" width="700" height="200" viewBox="0 0 700 200"><style>* {
          font-family: 'Segoe UI', Ubuntu, "Helvetica Neue", Sans-Serif
        }</style><rect x="1" y="1" rx="5" ry="5" height="99%" width="99.71428571428571%" stroke="#e4e2e2" stroke-width="1" fill="#ffffff" stroke-opacity="1"></rect><text x="30" y="40" style="font-size: 22px; fill: #586e75;">LHRUN (LH_R)</text><g transform="translate(0,40)"><g transform="translate(30,30)"><g transform="translate(0,0)" width="14" height="14" fill="#586e75"><path fill-rule="evenodd" d="M8 0C3.58 0 0 3.58 0 8c0 3.54 2.29 6.53 5.47 7.59.4.07.55-.17.55-.38 0-.19-.01-.82-.01-1.49-2.01.37-2.53-.49-2.69-.94-.09-.23-.48-.94-.82-1.13-.28-.15-.68-.52-.01-.53.63-.01 1.08.58 1.23.82.72 1.21 1.87.87 2.33.66.07-.52.28-.87.51-1.07-1.78-.2-3.64-.89-3.64-3.95 0-.87.31-1.59.82-2.15-.08-.2-.36-1.02.08-2.12 0 0 .67-.21 2.2.82.64-.18 1.32-.27 2-.27.68 0 1.36.09 2 .27 1.53-1.04 2.2-.82 2.2-.82.44 1.1.16 1.92.08 2.12.51.56.82 1.27.82 2.15 0 3.07-1.87 3.75-3.65 3.95.29.25.54.73.54 1.48 0 1.07-.01 1.93-.01 2.2 0 .21.15.46.55.38A8.013 8.013 0 0016 8c0-4.42-3.58-8-8-8z"></path></g><g transform="translate(0,28)" width="14" height="14" fill="#586e75"><path fill-rule="evenodd" d="M2 2.5A2.5 2.5 0 014.5 0h8.75a.75.75 0 01.75.75v12.5a.75.75 0 01-.75.75h-2.5a.75.75 0 110-1.5h1.75v-2h-8a1 1 0 00-.714 1.7.75.75 0 01-1.072 1.05A2.495 2.495 0 012 11.5v-9zm10.5-1V9h-8c-.356 0-.694.074-1 .208V2.5a1 1 0 011-1h8zM5 12.25v3.25a.25.25 0 00.4.2l1.45-1.087a.25.25 0 01.3 0L8.6 15.7a.25.25 0 00.4-.2v-3.25a.25.25 0 00-.25-.25h-3.5a.25.25 0 00-.25.25z"></path></g><g transform="translate(0,56)" width="14" height="14" fill="#586e75"><path fill-rule="evenodd" d="M1.5 8a6.5 6.5 0 1113 0 6.5 6.5 0 01-13 0zM8 0a8 8 0 100 16A8 8 0 008 0zm.5 4.75a.75.75 0 00-1.5 0v3.5a.75.75 0 00.471.696l2.5 1a.75.75 0 00.557-1.392L8.5 7.742V4.75z"></path></g><g transform="translate(0,84)" width="14" height="14" fill="#586e75"><path fill-rule="evenodd" d="M1.75 2A1.75 1.75 0 000 3.75v.736a.75.75 0 000 .027v7.737C0 13.216.784 14 1.75 14h12.5A1.75 1.75 0 0016 12.25v-8.5A1.75 1.75 0 0014.25 2H1.75zM14.5 4.07v-.32a.25.25 0 00-.25-.25H1.75a.25.25 0 00-.25.25v.32L8 7.88l6.5-3.81zm-13 1.74v6.441c0 .138.112.25.25.25h12.5a.25.25 0 00.25-.25V5.809L8.38 9.397a.75.75 0 01-.76 0L1.5 5.809z"></path></g><text x="21" y="14" style="fill: #586e75; font-size: 14px;">142 Contributions in 2023</text><text x="21" y="42" style="fill: #586e75; font-size: 14px;">9 Public Repos</text><text x="21" y="70" style="fill: #586e75; font-size: 14px;">Joined GitHub 4 years ago</text><text x="21" y="98" style="fill: #586e75; font-size: 14px;">song.lhlh@gmail.com</text></g><g color="#586e75" transform="translate(295,10)"><path transform="translate(-30,0)" stroke="#586e75" fill="#586e75" opacity="1" d="M0,105.28571428571429C9.915824915824915,53.42857142857144,19.831649831649834,1.5714285714285658,29.747474747474747,1.5714285714285658C39.34343434343434,1.5714285714285658,48.93939393939394,35.18498652766236,58.53535353535353,47.142857142857146C68.45117845117845,59.49932344522509,78.36700336700336,73.85714285714286,88.28282828282828,73.85714285714286C98.19865319865319,73.85714285714286,108.11447811447812,48.714285714285715,118.03030303030303,48.714285714285715C126.98653198653199,48.714285714285715,135.94276094276094,92.3763440860215,144.8989898989899,99C154.8148148148148,106.33333333333333,164.73063973063975,110,174.64646464646466,110C184.24242424242425,110,193.83838383838386,104.96965576288687,203.43434343434345,102.14285714285715C213.35016835016836,99.22183190215978,223.26599326599327,93.79682539682538,233.1818181818182,92.71428571428571C242.7777777777778,91.66666666666666,252.37373737373738,92.19047619047619,261.969696969697,91.14285714285714C271.8855218855219,90.06031746031746,281.8013468013468,86.69047619047619,291.7171717171717,83.28571428571428C301.6329966329966,79.88095238095237,311.54882154882154,70.71428571428571,321.4646464646464,70.71428571428571C331.060606060606,70.71428571428571,340.65656565656565,110,350.25252525252523,110C360.1683501683502,110,370.08417508417506,107.64285714285714,380,105.28571428571429L380,110C370.08417508417506,110,360.1683501683502,110,350.25252525252523,110C340.65656565656565,110,331.060606060606,110,321.4646464646464,110C311.54882154882154,110,301.6329966329966,110,291.7171717171717,110C281.8013468013468,110,271.8855218855219,110,261.969696969697,110C252.37373737373738,110,242.7777777777778,110,233.1818181818182,110C223.26599326599327,110,213.35016835016836,110,203.43434343434345,110C193.83838383838386,110,184.24242424242425,110,174.64646464646466,110C164.73063973063975,110,154.8148148148148,110,144.8989898989899,110C135.94276094276094,110,126.98653198653199,110,118.03030303030303,110C108.11447811447812,110,98.19865319865319,110,88.28282828282828,110C78.36700336700336,110,68.45117845117845,110,58.53535353535353,110C48.93939393939394,110,39.34343434343434,110,29.747474747474747,110C19.831649831649834,110,9.915824915824915,110,0,110Z"></path><g color="#586e75" transform="translate(-30,110)" fill="none" font-size="10" font-family="sans-serif" text-anchor="middle"><path class="domain" stroke="currentColor" d="M0.5,6V0.5H380.5V6"></path><g class="tick" opacity="1" transform="translate(0.5,0)"><line stroke="currentColor" y2="6"></line><text fill="currentColor" y="9" dy="0.71em">22/10</text></g><g class="tick" opacity="1" transform="translate(59.03535353535353,0)"><line stroke="currentColor" y2="6"></line><text fill="currentColor" y="9" dy="0.71em">22/12</text></g><g class="tick" opacity="1" transform="translate(118.53030303030303,0)"><line stroke="currentColor" y2="6"></line><text fill="currentColor" y="9" dy="0.71em">23/02</text></g><g class="tick" opacity="1" transform="translate(175.14646464646466,0)"><line stroke="currentColor" y2="6"></line><text fill="currentColor" y="9" dy="0.71em">23/04</text></g><g class="tick" opacity="1" transform="translate(233.6818181818182,0)"><line stroke="currentColor" y2="6"></line><text fill="currentColor" y="9" dy="0.71em">23/06</text></g><g class="tick" opacity="1" transform="translate(292.2171717171717,0)"><line stroke="currentColor" y2="6"></line><text fill="currentColor" y="9" dy="0.71em">23/08</text></g><g class="tick" opacity="1" transform="translate(350.75252525252523,0)"><line stroke="currentColor" y2="6"></line><text fill="currentColor" y="9" dy="0.71em">23/10</text></g></g><g color="#586e75" transform="translate(350,0)" fill="none" font-size="10" font-family="sans-serif" text-anchor="start"><path class="domain" stroke="currentColor" d="M6,110.5H0.5V0.5H6"></path><g class="tick" opacity="1" transform="translate(0,110.5)"><line stroke="currentColor" x2="6"></line><text fill="currentColor" x="9" dy="0.32em">0</text></g><g class="tick" opacity="1" transform="translate(0,94.78571428571429)"><line stroke="currentColor" x2="6"></line><text fill="currentColor" x="9" dy="0.32em">10</text></g><g class="tick" opacity="1" transform="translate(0,79.07142857142857)"><line stroke="currentColor" x2="6"></line><text fill="currentColor" x="9" dy="0.32em">20</text></g><g class="tick" opacity="1" transform="translate(0,63.357142857142854)"><line stroke="currentColor" x2="6"></line><text fill="currentColor" x="9" dy="0.32em">30</text></g><g class="tick" opacity="1" transform="translate(0,47.642857142857146)"><line stroke="currentColor" x2="6"></line><text fill="currentColor" x="9" dy="0.32em">40</text></g><g class="tick" opacity="1" transform="translate(0,31.928571428571427)"><line stroke="currentColor" x2="6"></line><text fill="currentColor" x="9" dy="0.32em">50</text></g><g class="tick" opacity="1" transform="translate(0,16.21428571428572)"><line stroke="currentColor" x2="6"></line><text fill="currentColor" x="9" dy="0.32em">60</text></g><g class="tick" opacity="1" transform="translate(0,0.5)"><line stroke="currentColor" x2="6"></line><text fill="currentColor" x="9" dy="0.32em">70</text></g></g><g><text y="-15" x="230" style="fill: #586e75; font-size: 10px;">contributions in the last year</text></g></g></g></svg>