<?xml version="1.0" standalone="no"?><!DOCTYPE svg PUBLIC "-//W3C//DTD SVG 1.1//EN" "http://www.w3.org/Graphics/SVG/1.1/DTD/svg11.dtd"><svg t="1699273565488" class="icon" viewBox="0 0 1024 1024" version="1.1" xmlns="http://www.w3.org/2000/svg" p-id="13094" xmlns:xlink="http://www.w3.org/1999/xlink" width="32" height="32"><path d="M614.485333 643.712c45.824 0 70.058667-26.410667 70.058667-69.632v-56.234667h119.893333c27.392 0 48.896-16.469333 48.896-41.856 0-15.445333-7.850667-27.818667-22.570666-40.832l-276.736-244.266666C539.349333 178.517333 527.018667 170.666667 512 170.666667s-27.306667 7.893333-41.685333 20.224l-277.077334 244.608c-15.36 13.738667-22.570667 25.045333-22.570666 40.490666 0 25.386667 21.546667 41.813333 49.194666 41.813334h119.936v56.32c0 43.178667 24.277333 69.589333 69.717334 69.589333h204.970666zM684.885333 793.301333c0 38.784-21.845333 60.032-59.776 60.032H396.501333c-37.930667 0-60.16-21.589333-60.16-60.032v-47.701333c0-37.717333 22.229333-60.373333 60.16-60.373333h228.608c37.930667 0 59.776 22.314667 59.776 60.373333v47.701333z" fill="#E7F6F2" p-id="13095"></path></svg>