<!DOCTYPE svg PUBLIC "-//W3C//DTD SVG 1.1//EN" "http://www.w3.org/Graphics/SVG/1.1/DTD/svg11.dtd">
<!-- Uploaded to: SVG Repo, www.svgrepo.com, Transformed by: SVG Repo Mixer Tools -->
<svg fill="#ab9696" version="1.1" id="Capa_1" xmlns="http://www.w3.org/2000/svg" xmlns:xlink="http://www.w3.org/1999/xlink" width="64px" height="64px" viewBox="0 0 168.1 168.099" xml:space="preserve" stroke="#ab9696">
<g id="SVGRepo_bgCarrier" stroke-width="0"/>
<g id="SVGRepo_tracerCarrier" stroke-linecap="round" stroke-linejoin="round"/>
<g id="SVGRepo_iconCarrier"> <g> <path d="M0,35.682h19.029v19.029H0V35.682z M0,80.608h19.029V61.582H0V80.608z M24.847,28.812h19.029V9.784H24.847V28.812z M24.847,54.706h19.029V35.677H24.847V54.706z M24.847,80.608h19.029V61.582H24.847V80.608z M24.847,106.517h19.029V87.491H24.847 V106.517z M49.691,28.812H68.72V9.784H49.691V28.812z M49.691,54.706H68.72V35.677H49.691V54.706z M49.691,80.608H68.72V61.582 H49.691V80.608z M49.691,106.517H68.72V87.491H49.691V106.517z M49.691,132.412H68.72V113.39H49.691V132.412z M74.534,54.706 h19.032V35.677H74.534V54.706z M74.534,80.608h19.032V61.582H74.534V80.608z M74.534,106.517h19.032V87.491H74.534V106.517z M74.534,132.412h19.032V113.39H74.534V132.412z M74.534,158.316h19.032v-19.021H74.534V158.316z M99.383,28.812h19.026V9.784 H99.383V28.812z M99.383,54.706h19.026V35.677H99.383V54.706z M99.383,80.608h19.026V61.582H99.383V80.608z M99.383,106.517h19.026 V87.491H99.383V106.517z M99.383,132.412h19.026V113.39H99.383V132.412z M124.226,28.812h19.031V9.784h-19.031V28.812z M124.226,54.706h19.031V35.677h-19.031V54.706z M124.226,80.608h19.031V61.582h-19.031V80.608z M124.226,106.517h19.031V87.491 h-19.031V106.517z M149.067,35.682v19.029H168.1V35.682H149.067z M149.067,80.608H168.1V61.582h-19.032V80.608z"/> </g> </g>
</svg>