<!DOCTYPE svg PUBLIC "-//W3C//DTD SVG 1.1//EN" "http://www.w3.org/Graphics/SVG/1.1/DTD/svg11.dtd">
<!-- Uploaded to: SVG Repo, www.svgrepo.com, Transformed by: SVG Repo Mixer Tools -->
<svg fill="#A5C9CA" width="64px" height="64px" viewBox="0 0 22 22" xmlns="http://www.w3.org/2000/svg" id="memory-login" transform="matrix(-1, 0, 0, 1, 0, 0)">
<g id="SVGRepo_bgCarrier" stroke-width="0"/>
<g id="SVGRepo_tracerCarrier" stroke-linecap="round" stroke-linejoin="round"/>
<g id="SVGRepo_iconCarrier">
<path d="M5 1H17V2H18V20H17V21H5V20H4V14H6V19H16V3H6V8H4V2H5V1M8 6H10V7H11V8H12V9H13V10H14V12H13V13H12V14H11V15H10V16H8V14H9V13H10V12H2V10H10V9H9V8H8V6Z"/>
</g>
</svg>