<!DOCTYPE svg PUBLIC "-//W3C//DTD SVG 1.1//EN" "http://www.w3.org/Graphics/SVG/1.1/DTD/svg11.dtd">
<!-- Uploaded to: SVG Repo, www.svgrepo.com, Transformed by: SVG Repo Mixer Tools -->
<svg fill="#A5C9CA" width="64px" height="64px" viewBox="0 0 22 22" xmlns="http://www.w3.org/2000/svg" id="memory-logout">
<g id="SVGRepo_bgCarrier" stroke-width="0"/>
<g id="SVGRepo_tracerCarrier" stroke-linecap="round" stroke-linejoin="round"/>
<g id="SVGRepo_iconCarrier">
<path d="M17 1V2H18V6H17V5H16V3H6V19H16V17H17V16H18V20H17V21H5V20H4V2H5V1H17M13 6H15V7H16V8H17V9H18V10H19V12H18V13H17V14H16V15H15V16H13V14H14V13H15V12H8V10H15V9H14V8H13V6Z"/>
</g>
</svg>