<!DOCTYPE svg PUBLIC "-//W3C//DTD SVG 1.1//EN" "http://www.w3.org/Graphics/SVG/1.1/DTD/svg11.dtd">

<!-- Uploaded to: SVG Repo, www.svgrepo.com, Transformed by: SVG Repo Mixer Tools -->
<svg fill="#d63d3d" width="64px" height="64px" viewBox="0 0 22 22" xmlns="http://www.w3.org/2000/svg" id="memory-bug" stroke="#d63d3d">

<g id="SVGRepo_bgCarrier" stroke-width="0"/>

<g id="SVGRepo_tracerCarrier" stroke-linecap="round" stroke-linejoin="round" stroke="#CCCCCC" stroke-width="0.044"/>

<g id="SVGRepo_iconCarrier">

<path d="M3 7H6V6H7V5H8V4H7V3H6V2H7V1H8V2H9V3H10V4H12V3H13V2H14V1H15V2H16V3H15V4H14V5H15V6H16V7H19V9H17V11H19V13H17V15H19V17H16V18H15V19H14V20H8V19H7V18H6V17H3V15H5V13H3V11H5V9H3V7M13 18V17H14V16H15V8H14V7H13V6H9V7H8V8H7V16H8V17H9V18H13M9 13H13V15H9V13M9 9H13V11H9V9Z"/>

</g>

</svg>