<?xml version="1.0" standalone="no"?><!DOCTYPE svg PUBLIC "-//W3C//DTD SVG 1.1//EN" "http://www.w3.org/Graphics/SVG/1.1/DTD/svg11.dtd"><svg t="1699449386580" class="icon" viewBox="0 0 1024 1024" version="1.1" xmlns="http://www.w3.org/2000/svg" p-id="17029" xmlns:xlink="http://www.w3.org/1999/xlink" width="32" height="32"><path d="M915.65321482 411.26874075c0-172.21404445-109.22666667-325.49546667-271.9744-381.68651853C540.39893333-5.97712592 422.19140741 2.63964445 325.34376297 53.248c-11.40811852 5.94678518-15.77718518 20.02488889-9.8304 31.43300741s20.02488889 15.77718518 31.4330074 9.8304c85.68225185-44.78293333 190.41848889-52.4288 281.56207408-20.99579259 144.05783703 49.75881482 240.66275555 185.32124445 240.66275555 337.75312593 0 196.85072592-160.19911111 357.04983703-357.04983703 357.04983703-74.27413333 0.24272592-146.72782222-22.9376-207.16657779-66.14281481-31.7970963-22.69487408-59.58921482-50.36562963-82.52681481-81.92-100.24580741-138.83922963-87.86678518-329.25771852 29.73392593-453.77611852 8.8594963-9.34494815 8.37404445-24.02986667-0.97090371-32.88936297s-24.02986667-8.37404445-32.88936296 0.9709037c-116.87253333 124.15431111-143.2082963 308.50465185-65.65736296 460.45108149 29.4912 57.64740741 72.45368889 107.40622222 125.24657778 145.02874074 44.9042963 32.16118518 95.63401482 54.37060741 148.91235555 65.90008889-36.89434075 30.09801482-60.56011852 75.85185185-60.56011852 127.06702222v61.2882963c0.24272592 12.86447408 10.92266667 23.05896297 23.78714074 22.69487407 12.86447408-0.24272592 23.05896297-10.92266667 22.69487408-23.78714074v-60.19602963c0.60681482-63.83691852 52.18607408-115.29481482 116.02299259-116.0229926 64.68645925-0.60681482 117.72207408 51.33653333 118.32888889 116.0229926v60.19602963c0 12.86447408 10.43721482 23.30168889 23.30168889 23.30168888h21.35988148c12.1362963 0 22.20942222-9.34494815 23.18032593-21.48124444 0.9709037-12.86447408-8.49540741-24.02986667-21.35988149-25.00077037v-37.0157037c0-55.22014815-27.54939259-104.25078518-69.66234074-133.86334815C792.22708148 750.35685925 915.65321482 595.01226667 915.65321482 411.26874075z" p-id="17030" fill="#A5C9CA"></path><path d="M252.76871111 361.02447408a55.22014815 55.09878518 0 1 0 110.4402963 0 55.22014815 55.09878518 0 1 0-110.4402963 0Z" p-id="17031" fill="#A5C9CA"></path><path d="M540.39893333 361.02447408a55.22014815 55.09878518 0 1 0 110.4402963 0 55.22014815 55.09878518 0 1 0-110.4402963 0Z" p-id="17032" fill="#A5C9CA"></path></svg>